<svg width="321" height="391" viewBox="0 0 321 391" fill="none" xmlns="http://www.w3.org/2000/svg">
<g clip-path="url(#clip0_1_2)">
<path d="M215.551 215.898L117.051 216.898V245.898L215.551 244.898V215.898Z" fill="#054C43" stroke="#054C43"/>
<path d="M0.0583504 192.398C4.06235 18.8981 200.554 -53.6016 319.059 46.3984L299.551 68.3984C181.051 -21.6016 33.5506 61.8982 31.0506 192.398C28.5506 322.898 175.551 415.898 300.051 322.898L319.559 345.398C199.554 447.398 -3.94565 365.898 0.0583504 192.398Z" fill="#054C43" stroke="#054C43"/>
<path d="M215.051 175.898L116.551 176.898L115.551 103.899C207.551 30.3985 324.051 103.898 316.551 202.898C309.051 301.898 200.551 355.898 114.051 287.398L132.55 265.898C187.551 311.898 279.551 288.398 287.051 202.898C294.551 117.399 196.551 78.8984 145.05 117.399L145.55 147.898L215.051 146.898V175.898Z" fill="#054C43" stroke="#054C43"/>
</g>
<defs>
<clipPath id="clip0_1_2">
<rect width="321" height="391" fill="white"/>
</clipPath>
</defs>
</svg>
